<svg width="3855" height="1080" viewBox="0 0 3855 1080" fill="none" xmlns="http://www.w3.org/2000/svg">
<rect width="1080" height="1080" rx="540" fill="#FF0009"/>
<path d="M662.304 428.046C680.151 401.283 689.075 376.306 689.075 353.112C689.075 329.918 682.531 311.482 669.443 297.804C656.355 284.125 639.104 277.286 617.687 277.286C596.271 277.286 579.019 282.638 565.932 293.343C552.844 303.453 546.3 319.808 546.3 342.407C546.3 364.411 561.767 404.257 592.702 461.944C623.636 519.631 643.268 556.801 651.596 573.453C674.202 618.651 685.505 662.362 685.505 704.587C685.505 757.516 666.171 800.632 627.503 833.936C589.43 866.645 544.218 883 491.868 883C440.112 883 399.362 866.943 369.617 834.828C339.872 802.119 325 764.058 325 720.644C325 640.358 374.674 574.047 474.021 521.713C433.568 442.021 413.342 386.416 413.342 354.896C413.342 310.887 430.891 273.718 465.99 243.388C501.683 212.463 545.11 197 596.271 197C648.027 197 687.587 210.084 714.952 236.251C742.317 262.418 756 295.722 756 336.163C756 362.925 747.077 393.552 729.23 428.046H662.304ZM428.511 775.952C444.574 793.199 463.908 801.822 486.513 801.822C509.714 801.822 527.561 795.28 540.054 782.196C553.141 768.518 559.685 748.595 559.685 722.428C559.685 698.639 550.464 669.499 532.023 635.005C529.643 630.248 525.182 621.624 518.638 609.135C512.094 596.052 507.335 586.834 504.36 581.481C437.732 615.974 404.418 659.388 404.418 711.723C404.418 738.485 412.449 759.895 428.511 775.952Z" fill="white"/>
<path d="M1525.14 371.838C1538.11 352.397 1544.59 334.253 1544.59 317.404C1544.59 300.555 1539.83 287.163 1530.32 277.227C1520.81 267.29 1508.27 262.322 1492.71 262.322C1477.15 262.322 1464.61 266.21 1455.1 273.986C1445.59 281.331 1440.83 293.211 1440.83 309.628C1440.83 325.612 1452.07 354.557 1474.55 396.463C1497.03 438.368 1511.3 465.369 1517.35 477.466C1533.78 510.299 1542 542.052 1542 572.725C1542 611.175 1527.95 642.496 1499.84 666.688C1472.17 690.449 1439.32 702.33 1401.27 702.33C1363.66 702.33 1334.04 690.665 1312.43 667.337C1290.81 643.576 1280 615.927 1280 584.39C1280 526.067 1316.1 477.898 1388.3 439.88C1358.9 381.99 1344.2 341.597 1344.2 318.7C1344.2 286.731 1356.96 259.73 1382.46 237.697C1408.4 215.232 1439.96 204 1477.15 204C1514.76 204 1543.51 213.504 1563.4 232.513C1583.28 251.522 1593.23 275.715 1593.23 305.092C1593.23 324.532 1586.74 346.781 1573.77 371.838H1525.14ZM1355.23 624.567C1366.9 637.095 1380.95 643.36 1397.38 643.36C1414.24 643.36 1427.21 638.608 1436.29 629.103C1445.8 619.167 1450.56 604.694 1450.56 585.686C1450.56 568.405 1443.86 547.236 1430.45 522.179C1428.72 518.723 1425.48 512.459 1420.73 503.387C1415.97 493.882 1412.51 487.186 1410.35 483.298C1361.93 508.355 1337.72 539.892 1337.72 577.909C1337.72 597.35 1343.55 612.903 1355.23 624.567Z" fill="#09090B"/>
<path d="M1750.02 386.743C1789.8 386.743 1822.87 399.487 1849.24 424.976C1876.05 450.465 1889.45 481.57 1889.45 518.291C1889.45 574.021 1873.02 618.735 1840.16 652.432C1807.74 685.697 1768.4 702.33 1722.14 702.33C1675.88 702.33 1639.13 689.153 1611.89 662.8C1585.09 636.447 1571.68 603.83 1571.68 564.949C1571.68 510.515 1588.33 467.313 1621.62 435.344C1655.34 402.943 1698.14 386.743 1750.02 386.743ZM1737.05 439.232C1716.73 439.232 1699.66 450.897 1685.82 474.226C1671.99 497.554 1664.42 526.932 1663.12 562.357C1663.12 587.414 1668.09 608.15 1678.04 624.567C1688.41 640.984 1703.98 649.192 1724.73 649.192C1745.48 649.192 1762.78 637.743 1776.61 614.847C1790.88 591.95 1798.01 565.813 1798.01 536.436C1798.01 507.059 1793.04 483.73 1783.1 466.449C1773.15 448.305 1757.8 439.232 1737.05 439.232Z" fill="#09090B"/>
<path d="M2073.86 625.863L2089.42 481.354C2089.42 469.689 2086.4 459.969 2080.34 452.193C2074.29 444.417 2064.13 440.528 2049.86 440.528C2036.03 440.528 2024.14 446.793 2014.19 459.321C2004.68 471.418 1998.63 486.754 1996.04 505.331C1980.47 623.703 1972.26 688.073 1971.39 698.442H1883.85L1919.51 393.223C1937.67 388.471 1951.51 386.094 1961.02 386.094C1989.98 386.094 2005.12 396.679 2006.41 417.848C2027.6 397.111 2052.89 386.743 2082.29 386.743C2112.12 386.743 2135.47 394.087 2152.33 408.775C2169.19 423.464 2177.62 442.04 2177.62 464.505C2177.62 470.554 2176.32 482.002 2173.73 498.85C2163.78 564.517 2158.81 602.75 2158.81 613.551C2158.81 633.423 2165.51 643.36 2178.92 643.36C2208.31 643.36 2230.58 612.687 2245.71 551.34C2260.41 566.893 2269.27 579.205 2272.3 588.278C2249.39 664.312 2209.61 702.33 2152.98 702.33C2126.17 702.33 2106.28 694.121 2093.31 677.705C2080.34 661.288 2073.86 644.008 2073.86 625.863Z" fill="#09090B"/>
<path d="M2519.09 465.153C2519.09 510.083 2492.29 544.428 2438.68 568.189C2439.97 575.965 2441.92 585.254 2444.51 596.054C2452.3 628.023 2465.27 644.44 2483.42 645.304C2484.72 645.304 2486.02 645.304 2487.32 645.304C2521.9 645.304 2547.63 614.847 2564.49 553.932C2573.57 562.141 2582.21 574.453 2590.43 590.87C2584.38 614.199 2575.73 633.855 2564.49 649.84C2553.68 665.824 2541.79 677.273 2528.82 684.185C2505.91 696.282 2484.29 702.33 2463.97 702.33C2416.41 702.33 2383.12 675.761 2364.1 622.623C2356.75 601.454 2351.78 579.853 2349.18 557.821C2373.83 551.772 2393.28 541.836 2407.55 528.012C2421.82 513.755 2428.95 498.635 2428.95 482.65C2428.95 455.001 2415.12 441.176 2387.45 441.176C2372.31 441.176 2359.34 447.009 2348.54 458.673C2337.73 469.905 2330.59 483.514 2327.13 499.499C2324.54 521.531 2320.22 556.309 2314.16 603.83C2308.54 650.92 2304.87 682.457 2303.14 698.442H2216.89C2248.02 433.616 2266.82 270.962 2273.31 210.48C2282.39 207.024 2294.71 205.296 2310.27 205.296C2344 205.296 2360.86 215.232 2360.86 235.105V238.993C2352.21 317.188 2344.21 377.022 2336.86 418.496C2360.64 396.463 2390.47 385.446 2426.36 385.446C2453.16 385.446 2475.21 392.359 2492.5 406.183C2510.23 420.008 2519.09 439.664 2519.09 465.153Z" fill="#09090B"/>
<path d="M2734.08 624.567L2749.65 481.354C2749.65 469.689 2746.62 459.969 2740.57 452.193C2734.51 444.417 2724.79 440.528 2711.38 440.528C2697.98 440.528 2686.52 445.929 2677.01 456.729C2667.93 467.097 2661.23 480.922 2656.91 498.203C2653.88 522.827 2649.34 558.901 2643.29 606.422C2637.24 653.512 2633.35 684.185 2631.62 698.442H2545.37C2576.49 433.616 2595.3 270.962 2601.79 210.48C2610.87 207.024 2623.19 205.296 2638.75 205.296C2672.47 205.296 2689.33 215.232 2689.33 235.105V238.993C2681.98 306.82 2674.2 366.438 2665.99 417.848C2688.9 397.111 2714.84 386.743 2743.81 386.743C2772.78 386.743 2795.69 394.087 2812.55 408.775C2829.41 423.464 2837.84 442.04 2837.84 464.505C2837.84 470.554 2836.55 481.786 2833.95 498.203C2824.01 563.005 2819.04 601.022 2819.04 612.255C2819.04 632.559 2825.74 642.712 2839.14 642.712C2850.38 642.712 2862.27 635.367 2874.81 620.679C2887.78 605.558 2898.15 582.446 2905.94 551.34C2920.64 566.893 2929.5 579.205 2932.52 588.278C2910.04 663.448 2870.27 701.034 2813.2 701.034C2786.39 701.034 2766.51 692.825 2753.54 676.409C2740.57 659.992 2734.08 642.712 2734.08 624.567Z" fill="#09090B"/>
<path d="M2918.68 221.497C2928.62 211.128 2940.73 205.944 2955 205.944C2969.26 205.944 2981.37 211.128 2991.31 221.497C3001.69 231.433 3006.88 243.529 3006.88 257.786C3006.88 272.042 3001.69 284.139 2991.31 294.075C2981.37 304.012 2969.26 308.98 2955 308.98C2940.73 308.98 2928.62 304.012 2918.68 294.075C2908.73 284.139 2903.76 272.042 2903.76 257.786C2903.76 243.529 2908.73 231.433 2918.68 221.497ZM2892.09 411.367C2896.41 403.591 2904.63 397.759 2916.73 393.871C2928.84 389.551 2940.73 387.391 2952.4 387.391C2964.51 387.391 2975.1 388.903 2984.18 391.927C2967.32 521.963 2958.89 587.63 2958.89 588.926C2956.72 597.566 2955.64 604.91 2955.64 610.959C2955.64 616.575 2956.08 621.543 2956.94 625.863C2958.67 637.095 2966.45 642.712 2980.29 642.712C2994.55 642.712 3007.52 633.639 3019.2 615.495C3031.3 596.918 3040.38 575.965 3046.43 552.636C3049.46 554.365 3054.22 559.549 3060.7 568.189C3067.19 576.829 3071.08 583.31 3072.37 587.63C3063.73 622.191 3049.03 650.056 3028.28 671.225C3007.52 692.393 2982.66 702.978 2953.7 702.978C2924.73 702.978 2903.11 695.85 2888.85 681.593C2875.01 667.337 2868.1 648.976 2868.1 626.511C2868.1 621.759 2868.31 616.791 2868.74 611.607L2892.09 411.367Z" fill="#09090B"/>
<path d="M3080.82 386.094C3108.92 386.094 3125.35 393.223 3130.11 407.479C3150.43 393.223 3176.15 386.094 3207.28 386.094C3238.41 386.094 3265.21 398.839 3287.7 424.328C3310.18 449.817 3321.42 479.626 3321.42 513.755C3321.42 518.507 3321.2 523.475 3320.77 528.66C3316.01 585.254 3296.99 628.455 3263.7 658.264C3230.41 687.641 3186.96 702.33 3133.35 702.33C3121.25 702.33 3108.06 700.818 3093.79 697.794L3019.2 916L2916.73 917.719C2984.18 671.225 3019.2 481.354 3043.86 391.279C3052.94 387.823 3065.26 386.094 3080.82 386.094ZM3229.98 518.291C3229.98 499.283 3225.65 482.434 3217.01 467.745C3208.36 453.057 3194.96 445.713 3176.8 445.713C3152.16 445.713 3133.35 461.697 3120.38 493.666C3111.73 557.605 3106.76 594.758 3105.46 605.126C3105.03 618.087 3109.14 627.807 3117.79 634.287C3126.43 640.768 3137.03 644.008 3149.56 644.008C3171.61 644.008 3189.77 634.071 3204.04 614.199C3221.33 589.574 3229.98 557.605 3229.98 518.291Z" fill="#09090B"/>
<path d="M3469.3 247.418C3469.3 250.01 3463.46 296.451 3451.79 386.743H3547.12V436.64H3445.31L3443.36 452.841C3493.94 495.178 3519.24 541.404 3519.24 591.518C3519.24 630.831 3509.08 659.128 3488.76 676.409C3468.87 693.689 3444.87 702.33 3416.77 702.33C3388.67 702.33 3368.13 694.985 3355.16 680.297C3342.19 665.176 3335.71 647.032 3335.71 625.863C3335.71 621.111 3336.14 615.927 3337.01 610.31L3357.11 437.936L3354.52 436.64H3301.99C3301.55 432.32 3301.34 425.408 3301.34 415.904C3301.34 405.967 3303.28 396.247 3307.17 386.743H3362.95L3383.7 210.48C3392.78 207.024 3404.88 205.296 3420.01 205.296C3452.87 205.296 3469.3 219.337 3469.3 247.418ZM3475.79 590.87C3475.79 561.061 3462.82 531.684 3436.88 502.739C3429.09 567.109 3425.2 604.262 3425.2 614.199C3425.2 633.639 3431.47 643.36 3444.01 643.36C3453.09 643.36 3460.65 639.256 3466.71 631.047C3472.76 622.407 3475.79 609.014 3475.79 590.87Z" fill="#09090B"/>
<path d="M3715.57 386.743C3755.35 386.743 3788.42 399.487 3814.79 424.976C3841.6 450.465 3855 481.57 3855 518.291C3855 574.021 3838.57 618.735 3805.71 652.432C3773.29 685.697 3733.95 702.33 3687.69 702.33C3641.43 702.33 3604.68 689.153 3577.44 662.8C3550.63 636.447 3537.23 603.83 3537.23 564.949C3537.23 510.515 3553.88 467.313 3587.17 435.344C3620.89 402.943 3663.69 386.743 3715.57 386.743ZM3702.6 439.232C3682.28 439.232 3665.2 450.897 3651.37 474.226C3637.53 497.554 3629.97 526.932 3628.67 562.357C3628.67 587.414 3633.64 608.15 3643.59 624.567C3653.96 640.984 3669.53 649.192 3690.28 649.192C3711.03 649.192 3728.33 637.743 3742.16 614.847C3756.43 591.95 3763.56 565.813 3763.56 536.436C3763.56 507.059 3758.59 483.73 3748.64 466.449C3738.7 448.305 3723.35 439.232 3702.6 439.232Z" fill="#09090B"/>
<path d="M1373.39 806.086C1372.73 799.884 1369.94 795.054 1365.01 791.598C1360.14 788.141 1353.79 786.413 1345.98 786.413C1340.49 786.413 1335.78 787.242 1331.85 788.899C1327.92 790.556 1324.91 792.805 1322.83 795.646C1320.74 798.487 1319.68 801.73 1319.63 805.376C1319.63 808.407 1320.32 811.034 1321.69 813.26C1323.11 815.485 1325.03 817.379 1327.44 818.942C1329.86 820.457 1332.53 821.735 1335.47 822.777C1338.4 823.818 1341.36 824.694 1344.35 825.405L1357.98 828.814C1363.48 830.092 1368.75 831.82 1373.82 833.998C1378.93 836.176 1383.5 838.923 1387.53 842.237C1391.6 845.551 1394.82 849.552 1397.19 854.24C1399.55 858.927 1400.74 864.42 1400.74 870.717C1400.74 879.24 1398.56 886.745 1394.2 893.231C1389.85 899.671 1383.55 904.713 1375.31 908.359C1367.12 911.958 1357.2 913.757 1345.55 913.757C1334.24 913.757 1324.41 912.005 1316.08 908.501C1307.79 904.997 1301.31 899.884 1296.62 893.16C1291.98 886.437 1289.47 878.246 1289.09 868.586H1315.01C1315.39 873.653 1316.96 877.867 1319.7 881.228C1322.45 884.59 1326.02 887.1 1330.43 888.757C1334.88 890.414 1339.85 891.243 1345.34 891.243C1351.07 891.243 1356.09 890.39 1360.4 888.686C1364.75 886.934 1368.16 884.519 1370.62 881.442C1373.09 878.317 1374.34 874.671 1374.39 870.504C1374.34 866.716 1373.23 863.591 1371.05 861.129C1368.87 858.62 1365.82 856.536 1361.89 854.879C1358.01 853.174 1353.46 851.659 1348.25 850.334L1331.7 846.072C1319.73 842.995 1310.26 838.331 1303.3 832.081C1296.38 825.783 1292.93 817.426 1292.93 807.01C1292.93 798.44 1295.25 790.935 1299.89 784.496C1304.57 778.056 1310.94 773.061 1318.99 769.51C1327.04 765.911 1336.16 764.112 1346.34 764.112C1356.66 764.112 1365.7 765.911 1373.47 769.51C1381.28 773.061 1387.41 778.009 1391.86 784.353C1396.31 790.651 1398.61 797.895 1398.75 806.086H1373.39ZM1493.57 802.464V822.351H1430.85V802.464H1493.57ZM1446.34 776.328H1472.05V878.743C1472.05 882.199 1472.57 884.851 1473.61 886.697C1474.7 888.496 1476.12 889.728 1477.87 890.39C1479.62 891.053 1481.56 891.385 1483.7 891.385C1485.31 891.385 1486.77 891.266 1488.1 891.03C1489.47 890.793 1490.51 890.58 1491.22 890.39L1495.56 910.49C1494.18 910.963 1492.22 911.484 1489.66 912.052C1487.15 912.621 1484.07 912.952 1480.43 913.047C1473.99 913.236 1468.19 912.265 1463.03 910.135C1457.87 907.957 1453.77 904.595 1450.74 900.049C1447.76 895.504 1446.29 889.822 1446.34 883.004V776.328ZM1562.46 913.757C1555.55 913.757 1549.32 912.526 1543.78 910.064C1538.29 907.554 1533.93 903.861 1530.71 898.984C1527.54 894.107 1525.96 888.094 1525.96 880.944C1525.96 874.789 1527.09 869.699 1529.37 865.674C1531.64 861.65 1534.74 858.43 1538.67 856.015C1542.6 853.601 1547.03 851.778 1551.95 850.547C1556.92 849.268 1562.06 848.345 1567.36 847.777C1573.75 847.114 1578.94 846.522 1582.92 846.001C1586.89 845.433 1589.78 844.581 1591.58 843.444C1593.43 842.261 1594.35 840.438 1594.35 837.976V837.549C1594.35 832.199 1592.76 828.056 1589.59 825.121C1586.42 822.185 1581.85 820.717 1575.88 820.717C1569.59 820.717 1564.59 822.09 1560.9 824.836C1557.25 827.583 1554.79 830.826 1553.51 834.567L1529.51 831.157C1531.4 824.529 1534.53 818.989 1538.88 814.538C1543.24 810.04 1548.56 806.678 1554.86 804.453C1561.16 802.18 1568.12 801.044 1575.74 801.044C1581 801.044 1586.23 801.659 1591.44 802.89C1596.65 804.121 1601.41 806.157 1605.71 808.998C1610.02 811.792 1613.48 815.603 1616.08 820.433C1618.74 825.263 1620.06 831.299 1620.06 838.544V911.555H1595.35V896.569H1594.49C1592.93 899.6 1590.73 902.441 1587.89 905.092C1585.09 907.696 1581.57 909.803 1577.31 911.413C1573.09 912.976 1568.14 913.757 1562.46 913.757ZM1569.14 894.865C1574.3 894.865 1578.77 893.847 1582.56 891.811C1586.35 889.728 1589.26 886.981 1591.3 883.572C1593.38 880.163 1594.42 876.446 1594.42 872.422V859.567C1593.62 860.229 1592.24 860.845 1590.3 861.413C1588.41 861.981 1586.28 862.478 1583.91 862.905C1581.54 863.331 1579.2 863.71 1576.88 864.041C1574.56 864.372 1572.55 864.656 1570.84 864.893C1567.01 865.414 1563.57 866.266 1560.54 867.45C1557.51 868.634 1555.12 870.291 1553.37 872.422C1551.62 874.505 1550.74 877.204 1550.74 880.518C1550.74 885.253 1552.47 888.828 1555.93 891.243C1559.38 893.657 1563.79 894.865 1569.14 894.865ZM1673.99 952.464C1670.48 952.464 1667.24 952.18 1664.26 951.612C1661.32 951.091 1658.98 950.476 1657.23 949.765L1663.19 929.737C1666.93 930.826 1670.27 931.347 1673.21 931.299C1676.14 931.252 1678.72 930.329 1680.95 928.53C1683.22 926.778 1685.14 923.842 1686.7 919.723L1688.9 913.828L1649.34 802.464H1676.62L1701.76 884.851H1702.89L1728.11 802.464H1755.45L1711.77 924.765C1709.74 930.542 1707.04 935.49 1703.67 939.609C1700.31 943.776 1696.19 946.948 1691.32 949.126C1686.49 951.352 1680.71 952.464 1673.99 952.464ZM1947.68 766.101H1974.03V861.129C1974.03 871.546 1971.56 880.708 1966.64 888.615C1961.76 896.522 1954.9 902.701 1946.04 907.152C1937.19 911.555 1926.84 913.757 1915.01 913.757C1903.12 913.757 1892.75 911.555 1883.9 907.152C1875.04 902.701 1868.18 896.522 1863.3 888.615C1858.43 880.708 1855.99 871.546 1855.99 861.129V766.101H1882.34V858.927C1882.34 864.988 1883.66 870.386 1886.31 875.121C1889.01 879.855 1892.8 883.572 1897.68 886.271C1902.55 888.923 1908.33 890.248 1915.01 890.248C1921.68 890.248 1927.46 888.923 1932.34 886.271C1937.26 883.572 1941.05 879.855 1943.7 875.121C1946.35 870.386 1947.68 864.988 1947.68 858.927V766.101ZM2017.53 952.464V802.464H2042.81V820.504H2044.31C2045.63 817.853 2047.5 815.035 2049.92 812.052C2052.33 809.022 2055.6 806.442 2059.72 804.311C2063.84 802.133 2069.09 801.044 2075.49 801.044C2083.91 801.044 2091.51 803.198 2098.28 807.507C2105.1 811.768 2110.5 818.089 2114.48 826.47C2118.5 834.803 2120.51 845.031 2120.51 857.152C2120.51 869.131 2118.55 879.311 2114.62 887.692C2110.69 896.072 2105.34 902.464 2098.57 906.868C2091.8 911.271 2084.13 913.473 2075.56 913.473C2069.31 913.473 2064.12 912.431 2060 910.348C2055.88 908.264 2052.57 905.755 2050.06 902.819C2047.6 899.836 2045.68 897.019 2044.31 894.368H2043.24V952.464H2017.53ZM2042.74 857.01C2042.74 864.065 2043.74 870.244 2045.73 875.547C2047.76 880.85 2050.67 884.993 2054.46 887.976C2058.3 890.911 2062.94 892.379 2068.38 892.379C2074.06 892.379 2078.82 890.864 2082.66 887.834C2086.49 884.756 2089.38 880.566 2091.32 875.263C2093.31 869.912 2094.31 863.828 2094.31 857.01C2094.31 850.239 2093.34 844.226 2091.39 838.97C2089.45 833.714 2086.56 829.595 2082.73 826.612C2078.89 823.629 2074.11 822.138 2068.38 822.138C2062.89 822.138 2058.23 823.582 2054.39 826.47C2050.56 829.358 2047.64 833.406 2045.66 838.615C2043.71 843.823 2042.74 849.955 2042.74 857.01ZM2199.01 913.473C2190.44 913.473 2182.77 911.271 2176 906.868C2169.23 902.464 2163.88 896.072 2159.95 887.692C2156.02 879.311 2154.06 869.131 2154.06 857.152C2154.06 845.031 2156.04 834.803 2160.02 826.47C2164.05 818.089 2169.47 811.768 2176.29 807.507C2183.1 803.198 2190.7 801.044 2199.08 801.044C2205.48 801.044 2210.73 802.133 2214.85 804.311C2218.97 806.442 2222.24 809.022 2224.65 812.052C2227.07 815.035 2228.94 817.853 2230.26 820.504H2231.33V766.101H2257.11V911.555H2231.83V894.368H2230.26C2228.94 897.019 2227.02 899.836 2224.51 902.819C2222 905.755 2218.69 908.264 2214.57 910.348C2210.45 912.431 2205.26 913.473 2199.01 913.473ZM2206.19 892.379C2211.63 892.379 2216.27 890.911 2220.11 887.976C2223.94 884.993 2226.85 880.85 2228.84 875.547C2230.83 870.244 2231.83 864.065 2231.83 857.01C2231.83 849.955 2230.83 843.823 2228.84 838.615C2226.9 833.406 2224.01 829.358 2220.18 826.47C2216.39 823.582 2211.73 822.138 2206.19 822.138C2200.46 822.138 2195.68 823.629 2191.84 826.612C2188 829.595 2185.12 833.714 2183.18 838.97C2181.23 844.226 2180.26 850.239 2180.26 857.01C2180.26 863.828 2181.23 869.912 2183.18 875.263C2185.16 880.566 2188.08 884.756 2191.91 887.834C2195.79 890.864 2200.55 892.379 2206.19 892.379ZM2331.9 913.757C2324.99 913.757 2318.76 912.526 2313.22 910.064C2307.73 907.554 2303.37 903.861 2300.15 898.984C2296.98 894.107 2295.39 888.094 2295.39 880.944C2295.39 874.789 2296.53 869.699 2298.8 865.674C2301.08 861.65 2304.18 858.43 2308.11 856.015C2312.04 853.601 2316.46 851.778 2321.39 850.547C2326.36 849.268 2331.5 848.345 2336.8 847.777C2343.19 847.114 2348.38 846.522 2352.35 846.001C2356.33 845.433 2359.22 844.581 2361.02 843.444C2362.87 842.261 2363.79 840.438 2363.79 837.976V837.549C2363.79 832.199 2362.2 828.056 2359.03 825.121C2355.86 822.185 2351.29 820.717 2345.32 820.717C2339.03 820.717 2334.03 822.09 2330.34 824.836C2326.69 827.583 2324.23 830.826 2322.95 834.567L2298.94 831.157C2300.84 824.529 2303.96 818.989 2308.32 814.538C2312.68 810.04 2318 806.678 2324.3 804.453C2330.6 802.18 2337.56 801.044 2345.18 801.044C2350.44 801.044 2355.67 801.659 2360.88 802.89C2366.08 804.121 2370.84 806.157 2375.15 808.998C2379.46 811.792 2382.92 815.603 2385.52 820.433C2388.17 825.263 2389.5 831.299 2389.5 838.544V911.555H2364.78V896.569H2363.93C2362.37 899.6 2360.17 902.441 2357.33 905.092C2354.53 907.696 2351 909.803 2346.74 911.413C2342.53 912.976 2337.58 913.757 2331.9 913.757ZM2338.58 894.865C2343.74 894.865 2348.21 893.847 2352 891.811C2355.79 889.728 2358.7 886.981 2360.73 883.572C2362.82 880.163 2363.86 876.446 2363.86 872.422V859.567C2363.05 860.229 2361.68 860.845 2359.74 861.413C2357.85 861.981 2355.72 862.478 2353.35 862.905C2350.98 863.331 2348.64 863.71 2346.32 864.041C2344 864.372 2341.98 864.656 2340.28 864.893C2336.44 865.414 2333.01 866.266 2329.98 867.45C2326.95 868.634 2324.56 870.291 2322.81 872.422C2321.06 874.505 2320.18 877.204 2320.18 880.518C2320.18 885.253 2321.91 888.828 2325.37 891.243C2328.82 893.657 2333.22 894.865 2338.58 894.865ZM2485.83 802.464V822.351H2423.11V802.464H2485.83ZM2438.6 776.328H2464.31V878.743C2464.31 882.199 2464.83 884.851 2465.87 886.697C2466.96 888.496 2468.38 889.728 2470.13 890.39C2471.88 891.053 2473.82 891.385 2475.95 891.385C2477.56 891.385 2479.03 891.266 2480.36 891.03C2481.73 890.793 2482.77 890.58 2483.48 890.39L2487.81 910.49C2486.44 910.963 2484.48 911.484 2481.92 912.052C2479.41 912.621 2476.33 912.952 2472.69 913.047C2466.25 913.236 2460.45 912.265 2455.29 910.135C2450.12 907.957 2446.03 904.595 2443 900.049C2440.02 895.504 2438.55 889.822 2438.6 883.004V776.328ZM2570.45 913.686C2559.51 913.686 2550.07 911.413 2542.11 906.868C2534.21 902.275 2528.12 895.788 2523.86 887.407C2519.6 878.979 2517.47 869.06 2517.47 857.649C2517.47 846.427 2519.6 836.579 2523.86 828.103C2528.17 819.581 2534.18 812.952 2541.9 808.217C2549.62 803.435 2558.68 801.044 2569.1 801.044C2575.83 801.044 2582.17 802.133 2588.14 804.311C2594.15 806.442 2599.45 809.756 2604.04 814.254C2608.68 818.752 2612.33 824.481 2614.98 831.442C2617.63 838.354 2618.96 846.593 2618.96 856.157V864.041H2529.54V846.711H2594.31C2594.27 841.787 2593.2 837.407 2591.12 833.572C2589.04 829.69 2586.12 826.636 2582.38 824.41C2578.69 822.185 2574.38 821.072 2569.46 821.072C2564.2 821.072 2559.58 822.351 2555.61 824.907C2551.63 827.417 2548.53 830.731 2546.3 834.851C2544.13 838.923 2543.01 843.397 2542.97 848.274V863.402C2542.97 869.746 2544.13 875.192 2546.45 879.737C2548.77 884.235 2552.01 887.692 2556.18 890.106C2560.34 892.474 2565.22 893.657 2570.81 893.657C2574.55 893.657 2577.93 893.137 2580.96 892.095C2583.99 891.006 2586.62 889.42 2588.85 887.336C2591.07 885.253 2592.75 882.673 2593.89 879.595L2617.89 882.294C2616.38 888.639 2613.49 894.178 2609.23 898.913C2605.02 903.601 2599.62 907.246 2593.04 909.851C2586.45 912.407 2578.93 913.686 2570.45 913.686ZM2697.19 913.473C2688.62 913.473 2680.95 911.271 2674.18 906.868C2667.41 902.464 2662.06 896.072 2658.13 887.692C2654.2 879.311 2652.24 869.131 2652.24 857.152C2652.24 845.031 2654.22 834.803 2658.2 826.47C2662.23 818.089 2667.65 811.768 2674.47 807.507C2681.28 803.198 2688.88 801.044 2697.26 801.044C2703.66 801.044 2708.91 802.133 2713.03 804.311C2717.15 806.442 2720.42 809.022 2722.83 812.052C2725.25 815.035 2727.12 817.853 2728.44 820.504H2729.51V766.101H2755.29V911.555H2730.01V894.368H2728.44C2727.12 897.019 2725.2 899.836 2722.69 902.819C2720.18 905.755 2716.87 908.264 2712.75 910.348C2708.63 912.431 2703.44 913.473 2697.19 913.473ZM2704.37 892.379C2709.81 892.379 2714.45 890.911 2718.29 887.976C2722.12 884.993 2725.03 880.85 2727.02 875.547C2729.01 870.244 2730.01 864.065 2730.01 857.01C2730.01 849.955 2729.01 843.823 2727.02 838.615C2725.08 833.406 2722.19 829.358 2718.36 826.47C2714.57 823.582 2709.91 822.138 2704.37 822.138C2698.64 822.138 2693.86 823.629 2690.02 826.612C2686.18 829.595 2683.3 833.714 2681.36 838.97C2679.41 844.226 2678.44 850.239 2678.44 857.01C2678.44 863.828 2679.41 869.912 2681.36 875.263C2683.34 880.566 2686.26 884.756 2690.09 887.834C2693.97 890.864 2698.73 892.379 2704.37 892.379Z" fill="#09090B"/>
</svg>
